<svg id="visual" viewBox="0 0 540 960" width="540" height="960" xmlns="http://www.w3.org/2000/svg" xmlns:xlink="http://www.w3.org/1999/xlink" version="1.1"><rect x="0" y="0" width="540" height="960" fill="#f6f6f6"></rect><defs><linearGradient id="grad1_0" x1="0%" y1="0%" x2="100%" y2="100%"><stop offset="30%" stop-color="#ab830f" stop-opacity="1"></stop><stop offset="70%" stop-color="#ab830f" stop-opacity="1"></stop></linearGradient></defs><defs><linearGradient id="grad1_1" x1="0%" y1="0%" x2="100%" y2="100%"><stop offset="30%" stop-color="#ab830f" stop-opacity="1"></stop><stop offset="70%" stop-color="#d7ba87" stop-opacity="1"></stop></linearGradient></defs><defs><linearGradient id="grad1_2" x1="0%" y1="0%" x2="100%" y2="100%"><stop offset="30%" stop-color="#f6f6f6" stop-opacity="1"></stop><stop offset="70%" stop-color="#d7ba87" stop-opacity="1"></stop></linearGradient></defs><defs><linearGradient id="grad2_0" x1="0%" y1="0%" x2="100%" y2="100%"><stop offset="30%" stop-color="#ab830f" stop-opacity="1"></stop><stop offset="70%" stop-color="#ab830f" stop-opacity="1"></stop></linearGradient></defs><defs><linearGradient id="grad2_1" x1="0%" y1="0%" x2="100%" y2="100%"><stop offset="30%" stop-color="#d7ba87" stop-opacity="1"></stop><stop offset="70%" stop-color="#ab830f" stop-opacity="1"></stop></linearGradient></defs><defs><linearGradient id="grad2_2" x1="0%" y1="0%" x2="100%" y2="100%"><stop offset="30%" stop-color="#d7ba87" stop-opacity="1"></stop><stop offset="70%" stop-color="#f6f6f6" stop-opacity="1"></stop></linearGradient></defs><g transform="translate(540, 0)"><path d="M0 324C-46.6 323.8 -93.3 323.7 -124 299.3C-154.7 275 -169.4 226.6 -193.7 193.7C-218.1 160.9 -252 143.7 -275.3 114C-298.6 84.4 -311.3 42.2 -324 0L0 0Z" fill="#e8d8be"></path><path d="M0 216C-31.1 215.9 -62.2 215.8 -82.7 199.6C-103.1 183.3 -112.9 151 -129.2 129.2C-145.4 107.3 -168 95.8 -183.5 76C-199.1 56.2 -207.5 28.1 -216 0L0 0Z" fill="#c29e51"></path><path d="M0 108C-15.5 107.9 -31.1 107.9 -41.3 99.8C-51.6 91.7 -56.5 75.5 -64.6 64.6C-72.7 53.6 -84 47.9 -91.8 38C-99.5 28.1 -103.8 14.1 -108 0L0 0Z" fill="#ab830f"></path></g><g transform="translate(0, 960)"><path d="M0 -324C35.5 -302.7 71.1 -281.5 111.4 -268.8C151.7 -256.2 196.8 -252.3 229.1 -229.1C261.4 -205.9 281 -163.5 294.7 -122.1C308.4 -80.7 316.2 -40.3 324 0L0 0Z" fill="#e8d8be"></path><path d="M0 -216C23.7 -201.8 47.4 -187.6 74.2 -179.2C101.1 -170.8 131.2 -168.2 152.7 -152.7C174.3 -137.3 187.4 -109 196.5 -81.4C205.6 -53.8 210.8 -26.9 216 0L0 0Z" fill="#c29e51"></path><path d="M0 -108C11.8 -100.9 23.7 -93.8 37.1 -89.6C50.6 -85.4 65.6 -84.1 76.4 -76.4C87.1 -68.6 93.7 -54.5 98.2 -40.7C102.8 -26.9 105.4 -13.4 108 0L0 0Z" fill="#ab830f"></path></g></svg>